<mxfile host="app.diagrams.net" modified="2022-10-02T16:07:05.198Z" agent="5.0 (Windows NT 10.0; Win64; x64) AppleWebKit/537.36 (KHTML, like Gecko) Chrome/106.0.0.0 Safari/537.36" etag="rUvWBK4T5Qa0aswBLy2q" version="20.3.6" type="github">
  <diagram id="mCyr1kptdM3YggUfpTlr" name="Page-1">
    <mxGraphModel dx="1038" dy="1647" grid="1" gridSize="10" guides="1" tooltips="1" connect="1" arrows="1" fold="1" page="1" pageScale="1" pageWidth="850" pageHeight="1100" math="0" shadow="0">
      <root>
        <mxCell id="0" />
        <mxCell id="1" parent="0" />
        <mxCell id="RMtQjLJvcsIaxz_irh20-22" value="" style="endArrow=none;html=1;endSize=12;startArrow=diamondThin;startSize=18;startFill=0;entryX=0.25;entryY=0;entryDx=0;entryDy=0;exitX=0.251;exitY=1.131;exitDx=0;exitDy=0;exitPerimeter=0;" parent="1" target="jVCcC9wVuBLIgn5sHMaD-44" edge="1" source="jVCcC9wVuBLIgn5sHMaD-41">
          <mxGeometry relative="1" as="geometry">
            <mxPoint x="285" y="-570" as="sourcePoint" />
            <mxPoint x="710" y="-560" as="targetPoint" />
            <Array as="points" />
          </mxGeometry>
        </mxCell>
        <mxCell id="jVCcC9wVuBLIgn5sHMaD-22" value="Користувач" style="swimlane;fontStyle=0;childLayout=stackLayout;horizontal=1;startSize=26;fillColor=none;horizontalStack=0;resizeParent=1;resizeParentMax=0;resizeLast=0;collapsible=1;marginBottom=0;" parent="1" vertex="1">
          <mxGeometry x="59.99999999999997" y="-650" width="140" height="156" as="geometry">
            <mxRectangle x="280" y="-970" width="60" height="30" as="alternateBounds" />
          </mxGeometry>
        </mxCell>
        <mxCell id="jVCcC9wVuBLIgn5sHMaD-23" value="ПІБ" style="text;strokeColor=none;fillColor=none;align=left;verticalAlign=top;spacingLeft=4;spacingRight=4;overflow=hidden;rotatable=0;points=[[0,0.5],[1,0.5]];portConstraint=eastwest;" parent="jVCcC9wVuBLIgn5sHMaD-22" vertex="1">
          <mxGeometry y="26" width="140" height="26" as="geometry" />
        </mxCell>
        <mxCell id="jVCcC9wVuBLIgn5sHMaD-24" value="Вік" style="text;strokeColor=none;fillColor=none;align=left;verticalAlign=top;spacingLeft=4;spacingRight=4;overflow=hidden;rotatable=0;points=[[0,0.5],[1,0.5]];portConstraint=eastwest;" parent="jVCcC9wVuBLIgn5sHMaD-22" vertex="1">
          <mxGeometry y="52" width="140" height="26" as="geometry" />
        </mxCell>
        <mxCell id="jVCcC9wVuBLIgn5sHMaD-25" value="Телефон" style="text;strokeColor=none;fillColor=none;align=left;verticalAlign=top;spacingLeft=4;spacingRight=4;overflow=hidden;rotatable=0;points=[[0,0.5],[1,0.5]];portConstraint=eastwest;" parent="jVCcC9wVuBLIgn5sHMaD-22" vertex="1">
          <mxGeometry y="78" width="140" height="26" as="geometry" />
        </mxCell>
        <mxCell id="jVCcC9wVuBLIgn5sHMaD-31" value="E-mail" style="text;strokeColor=none;fillColor=none;align=left;verticalAlign=top;spacingLeft=4;spacingRight=4;overflow=hidden;rotatable=0;points=[[0,0.5],[1,0.5]];portConstraint=eastwest;" parent="jVCcC9wVuBLIgn5sHMaD-22" vertex="1">
          <mxGeometry y="104" width="140" height="26" as="geometry" />
        </mxCell>
        <mxCell id="jVCcC9wVuBLIgn5sHMaD-32" value="Фото" style="text;strokeColor=none;fillColor=none;align=left;verticalAlign=top;spacingLeft=4;spacingRight=4;overflow=hidden;rotatable=0;points=[[0,0.5],[1,0.5]];portConstraint=eastwest;" parent="jVCcC9wVuBLIgn5sHMaD-22" vertex="1">
          <mxGeometry y="130" width="140" height="26" as="geometry" />
        </mxCell>
        <mxCell id="jVCcC9wVuBLIgn5sHMaD-33" value="API для надання &#xa;рекомендацій &#xa;живописних місць" style="swimlane;fontStyle=0;childLayout=stackLayout;horizontal=1;startSize=50;fillColor=none;horizontalStack=0;resizeParent=1;resizeParentMax=0;resizeLast=0;collapsible=1;marginBottom=0;" parent="1" vertex="1">
          <mxGeometry x="530" y="-530" width="140" height="154" as="geometry">
            <mxRectangle x="280" y="-970" width="60" height="30" as="alternateBounds" />
          </mxGeometry>
        </mxCell>
        <mxCell id="jVCcC9wVuBLIgn5sHMaD-34" value="Назва" style="text;strokeColor=none;fillColor=none;align=left;verticalAlign=top;spacingLeft=4;spacingRight=4;overflow=hidden;rotatable=0;points=[[0,0.5],[1,0.5]];portConstraint=eastwest;" parent="jVCcC9wVuBLIgn5sHMaD-33" vertex="1">
          <mxGeometry y="50" width="140" height="26" as="geometry" />
        </mxCell>
        <mxCell id="jVCcC9wVuBLIgn5sHMaD-35" value="Фото" style="text;strokeColor=none;fillColor=none;align=left;verticalAlign=top;spacingLeft=4;spacingRight=4;overflow=hidden;rotatable=0;points=[[0,0.5],[1,0.5]];portConstraint=eastwest;" parent="jVCcC9wVuBLIgn5sHMaD-33" vertex="1">
          <mxGeometry y="76" width="140" height="26" as="geometry" />
        </mxCell>
        <mxCell id="jVCcC9wVuBLIgn5sHMaD-36" value="Опис" style="text;strokeColor=none;fillColor=none;align=left;verticalAlign=top;spacingLeft=4;spacingRight=4;overflow=hidden;rotatable=0;points=[[0,0.5],[1,0.5]];portConstraint=eastwest;" parent="jVCcC9wVuBLIgn5sHMaD-33" vertex="1">
          <mxGeometry y="102" width="140" height="26" as="geometry" />
        </mxCell>
        <mxCell id="jVCcC9wVuBLIgn5sHMaD-37" value="Адреса" style="text;strokeColor=none;fillColor=none;align=left;verticalAlign=top;spacingLeft=4;spacingRight=4;overflow=hidden;rotatable=0;points=[[0,0.5],[1,0.5]];portConstraint=eastwest;" parent="jVCcC9wVuBLIgn5sHMaD-33" vertex="1">
          <mxGeometry y="128" width="140" height="26" as="geometry" />
        </mxCell>
        <mxCell id="jVCcC9wVuBLIgn5sHMaD-39" value="Інформація API " style="swimlane;fontStyle=0;childLayout=stackLayout;horizontal=1;startSize=28;fillColor=none;horizontalStack=0;resizeParent=1;resizeParentMax=0;resizeLast=0;collapsible=1;marginBottom=0;" parent="1" vertex="1">
          <mxGeometry x="310" y="-650" width="140" height="80" as="geometry">
            <mxRectangle x="280" y="-970" width="60" height="30" as="alternateBounds" />
          </mxGeometry>
        </mxCell>
        <mxCell id="jVCcC9wVuBLIgn5sHMaD-40" value="Регіон" style="text;strokeColor=none;fillColor=none;align=left;verticalAlign=top;spacingLeft=4;spacingRight=4;overflow=hidden;rotatable=0;points=[[0,0.5],[1,0.5]];portConstraint=eastwest;" parent="jVCcC9wVuBLIgn5sHMaD-39" vertex="1">
          <mxGeometry y="28" width="140" height="26" as="geometry" />
        </mxCell>
        <mxCell id="jVCcC9wVuBLIgn5sHMaD-41" value="Вологість" style="text;strokeColor=none;fillColor=none;align=left;verticalAlign=top;spacingLeft=4;spacingRight=4;overflow=hidden;rotatable=0;points=[[0,0.5],[1,0.5]];portConstraint=eastwest;" parent="jVCcC9wVuBLIgn5sHMaD-39" vertex="1">
          <mxGeometry y="54" width="140" height="26" as="geometry" />
        </mxCell>
        <mxCell id="jVCcC9wVuBLIgn5sHMaD-44" value="Інформація &#xa;про житло" style="swimlane;fontStyle=0;childLayout=stackLayout;horizontal=1;startSize=50;fillColor=none;horizontalStack=0;resizeParent=1;resizeParentMax=0;resizeLast=0;collapsible=1;marginBottom=0;" parent="1" vertex="1">
          <mxGeometry x="310" y="-530" width="140" height="154" as="geometry">
            <mxRectangle x="280" y="-970" width="60" height="30" as="alternateBounds" />
          </mxGeometry>
        </mxCell>
        <mxCell id="jVCcC9wVuBLIgn5sHMaD-45" value="Адреса" style="text;strokeColor=none;fillColor=none;align=left;verticalAlign=top;spacingLeft=4;spacingRight=4;overflow=hidden;rotatable=0;points=[[0,0.5],[1,0.5]];portConstraint=eastwest;" parent="jVCcC9wVuBLIgn5sHMaD-44" vertex="1">
          <mxGeometry y="50" width="140" height="26" as="geometry" />
        </mxCell>
        <mxCell id="jVCcC9wVuBLIgn5sHMaD-46" value="Ціна" style="text;strokeColor=none;fillColor=none;align=left;verticalAlign=top;spacingLeft=4;spacingRight=4;overflow=hidden;rotatable=0;points=[[0,0.5],[1,0.5]];portConstraint=eastwest;" parent="jVCcC9wVuBLIgn5sHMaD-44" vertex="1">
          <mxGeometry y="76" width="140" height="26" as="geometry" />
        </mxCell>
        <mxCell id="jVCcC9wVuBLIgn5sHMaD-47" value="Фото" style="text;strokeColor=none;fillColor=none;align=left;verticalAlign=top;spacingLeft=4;spacingRight=4;overflow=hidden;rotatable=0;points=[[0,0.5],[1,0.5]];portConstraint=eastwest;" parent="jVCcC9wVuBLIgn5sHMaD-44" vertex="1">
          <mxGeometry y="102" width="140" height="26" as="geometry" />
        </mxCell>
        <mxCell id="jVCcC9wVuBLIgn5sHMaD-48" value="Опис" style="text;strokeColor=none;fillColor=none;align=left;verticalAlign=top;spacingLeft=4;spacingRight=4;overflow=hidden;rotatable=0;points=[[0,0.5],[1,0.5]];portConstraint=eastwest;" parent="jVCcC9wVuBLIgn5sHMaD-44" vertex="1">
          <mxGeometry y="128" width="140" height="26" as="geometry" />
        </mxCell>
        <mxCell id="jVCcC9wVuBLIgn5sHMaD-49" value="Online-замовлення" style="swimlane;fontStyle=0;childLayout=stackLayout;horizontal=1;startSize=28;fillColor=none;horizontalStack=0;resizeParent=1;resizeParentMax=0;resizeLast=0;collapsible=1;marginBottom=0;" parent="1" vertex="1">
          <mxGeometry x="60" y="-430" width="140" height="54" as="geometry">
            <mxRectangle x="280" y="-970" width="60" height="30" as="alternateBounds" />
          </mxGeometry>
        </mxCell>
        <mxCell id="jVCcC9wVuBLIgn5sHMaD-50" value="Текст" style="text;strokeColor=none;fillColor=none;align=left;verticalAlign=top;spacingLeft=4;spacingRight=4;overflow=hidden;rotatable=0;points=[[0,0.5],[1,0.5]];portConstraint=eastwest;" parent="jVCcC9wVuBLIgn5sHMaD-49" vertex="1">
          <mxGeometry y="28" width="140" height="26" as="geometry" />
        </mxCell>
        <mxCell id="jVCcC9wVuBLIgn5sHMaD-53" value="1" style="text;html=1;align=center;verticalAlign=middle;resizable=0;points=[];autosize=1;strokeColor=none;fillColor=none;" parent="1" vertex="1">
          <mxGeometry x="310" y="-550" width="30" height="30" as="geometry" />
        </mxCell>
        <mxCell id="jVCcC9wVuBLIgn5sHMaD-54" value="1" style="text;html=1;align=center;verticalAlign=middle;resizable=0;points=[];autosize=1;strokeColor=none;fillColor=none;" parent="1" vertex="1">
          <mxGeometry x="310" y="-580" width="30" height="30" as="geometry" />
        </mxCell>
        <mxCell id="jVCcC9wVuBLIgn5sHMaD-55" value="" style="endArrow=none;html=1;startSize=12;startArrow=open;startFill=0;exitX=0.554;exitY=0.006;exitDx=0;exitDy=0;exitPerimeter=0;" parent="1" source="jVCcC9wVuBLIgn5sHMaD-44" edge="1">
          <mxGeometry relative="1" as="geometry">
            <mxPoint x="390" y="-423" as="sourcePoint" />
            <mxPoint x="388" y="-570" as="targetPoint" />
            <Array as="points" />
          </mxGeometry>
        </mxCell>
        <mxCell id="jVCcC9wVuBLIgn5sHMaD-59" value="*" style="text;html=1;align=center;verticalAlign=middle;resizable=0;points=[];autosize=1;strokeColor=none;fillColor=none;" parent="1" vertex="1">
          <mxGeometry x="390" y="-550" width="30" height="30" as="geometry" />
        </mxCell>
        <mxCell id="jVCcC9wVuBLIgn5sHMaD-60" value="1" style="text;html=1;align=center;verticalAlign=middle;resizable=0;points=[];autosize=1;strokeColor=none;fillColor=none;" parent="1" vertex="1">
          <mxGeometry x="390" y="-580" width="30" height="30" as="geometry" />
        </mxCell>
        <mxCell id="jVCcC9wVuBLIgn5sHMaD-62" value="" style="endArrow=none;html=1;startSize=12;startArrow=open;startFill=0;entryX=1;entryY=0.5;entryDx=0;entryDy=0;exitX=0;exitY=0.5;exitDx=0;exitDy=0;" parent="1" source="jVCcC9wVuBLIgn5sHMaD-34" target="jVCcC9wVuBLIgn5sHMaD-45" edge="1">
          <mxGeometry relative="1" as="geometry">
            <mxPoint x="490" y="-610" as="sourcePoint" />
            <mxPoint x="500" y="-560" as="targetPoint" />
            <Array as="points" />
          </mxGeometry>
        </mxCell>
        <mxCell id="jVCcC9wVuBLIgn5sHMaD-63" value="*" style="text;html=1;align=center;verticalAlign=middle;resizable=0;points=[];autosize=1;strokeColor=none;fillColor=none;" parent="1" vertex="1">
          <mxGeometry x="450" y="-494" width="30" height="30" as="geometry" />
        </mxCell>
        <mxCell id="jVCcC9wVuBLIgn5sHMaD-64" value="*" style="text;html=1;align=center;verticalAlign=middle;resizable=0;points=[];autosize=1;strokeColor=none;fillColor=none;" parent="1" vertex="1">
          <mxGeometry x="490" y="-494" width="30" height="30" as="geometry" />
        </mxCell>
        <mxCell id="jVCcC9wVuBLIgn5sHMaD-65" value="" style="endArrow=none;html=1;startSize=12;startArrow=open;startFill=0;exitX=0;exitY=-0.131;exitDx=0;exitDy=0;exitPerimeter=0;" parent="1" source="jVCcC9wVuBLIgn5sHMaD-41" edge="1">
          <mxGeometry relative="1" as="geometry">
            <mxPoint x="450" y="-457" as="sourcePoint" />
            <mxPoint x="200" y="-600" as="targetPoint" />
            <Array as="points" />
          </mxGeometry>
        </mxCell>
        <mxCell id="jVCcC9wVuBLIgn5sHMaD-66" value="*" style="text;html=1;align=center;verticalAlign=middle;resizable=0;points=[];autosize=1;strokeColor=none;fillColor=none;" parent="1" vertex="1">
          <mxGeometry x="200" y="-625" width="30" height="30" as="geometry" />
        </mxCell>
        <mxCell id="jVCcC9wVuBLIgn5sHMaD-67" value="*" style="text;html=1;align=center;verticalAlign=middle;resizable=0;points=[];autosize=1;strokeColor=none;fillColor=none;" parent="1" vertex="1">
          <mxGeometry x="270" y="-625" width="30" height="30" as="geometry" />
        </mxCell>
        <mxCell id="jVCcC9wVuBLIgn5sHMaD-68" value="" style="endArrow=none;html=1;startSize=12;startArrow=open;startFill=0;" parent="1" edge="1">
          <mxGeometry relative="1" as="geometry">
            <mxPoint x="120" y="-430" as="sourcePoint" />
            <mxPoint x="120" y="-490" as="targetPoint" />
            <Array as="points" />
          </mxGeometry>
        </mxCell>
        <mxCell id="jVCcC9wVuBLIgn5sHMaD-69" value="1" style="text;html=1;align=center;verticalAlign=middle;resizable=0;points=[];autosize=1;strokeColor=none;fillColor=none;" parent="1" vertex="1">
          <mxGeometry x="90" y="-500" width="30" height="30" as="geometry" />
        </mxCell>
        <mxCell id="jVCcC9wVuBLIgn5sHMaD-70" value="*" style="text;html=1;align=center;verticalAlign=middle;resizable=0;points=[];autosize=1;strokeColor=none;fillColor=none;" parent="1" vertex="1">
          <mxGeometry x="90" y="-460" width="30" height="30" as="geometry" />
        </mxCell>
        <mxCell id="jVCcC9wVuBLIgn5sHMaD-71" value="" style="endArrow=none;html=1;startSize=12;startArrow=open;startFill=0;entryX=1;entryY=0.5;entryDx=0;entryDy=0;exitX=0;exitY=0.25;exitDx=0;exitDy=0;" parent="1" source="jVCcC9wVuBLIgn5sHMaD-44" target="jVCcC9wVuBLIgn5sHMaD-31" edge="1">
          <mxGeometry relative="1" as="geometry">
            <mxPoint x="450" y="-457" as="sourcePoint" />
            <mxPoint x="400" y="-457" as="targetPoint" />
            <Array as="points" />
          </mxGeometry>
        </mxCell>
        <mxCell id="jVCcC9wVuBLIgn5sHMaD-72" value="*" style="text;html=1;align=center;verticalAlign=middle;resizable=0;points=[];autosize=1;strokeColor=none;fillColor=none;" parent="1" vertex="1">
          <mxGeometry x="200" y="-550" width="30" height="30" as="geometry" />
        </mxCell>
        <mxCell id="jVCcC9wVuBLIgn5sHMaD-73" value="*" style="text;html=1;align=center;verticalAlign=middle;resizable=0;points=[];autosize=1;strokeColor=none;fillColor=none;" parent="1" vertex="1">
          <mxGeometry x="280" y="-520" width="30" height="30" as="geometry" />
        </mxCell>
        <mxCell id="7u4pN3WIWoAdJAjM00vs-1" value="фомує" style="text;html=1;align=center;verticalAlign=middle;resizable=0;points=[];autosize=1;strokeColor=none;fillColor=none;rotation=-90;" vertex="1" parent="1">
          <mxGeometry x="110" y="-480" width="60" height="30" as="geometry" />
        </mxCell>
        <mxCell id="7u4pN3WIWoAdJAjM00vs-2" value="переглядає" style="text;html=1;align=center;verticalAlign=middle;resizable=0;points=[];autosize=1;strokeColor=none;fillColor=none;" vertex="1" parent="1">
          <mxGeometry x="200" y="-600" width="90" height="30" as="geometry" />
        </mxCell>
        <mxCell id="7u4pN3WIWoAdJAjM00vs-4" value="надає" style="text;html=1;align=center;verticalAlign=middle;resizable=0;points=[];autosize=1;strokeColor=none;fillColor=none;" vertex="1" parent="1">
          <mxGeometry x="460" y="-468" width="60" height="30" as="geometry" />
        </mxCell>
        <mxCell id="7u4pN3WIWoAdJAjM00vs-5" value="надає" style="text;html=1;align=center;verticalAlign=middle;resizable=0;points=[];autosize=1;strokeColor=none;fillColor=none;rotation=-90;" vertex="1" parent="1">
          <mxGeometry x="340" y="-565" width="60" height="30" as="geometry" />
        </mxCell>
        <mxCell id="7u4pN3WIWoAdJAjM00vs-7" value="отримує" style="text;html=1;align=center;verticalAlign=middle;resizable=0;points=[];autosize=1;strokeColor=none;fillColor=none;rotation=15;" vertex="1" parent="1">
          <mxGeometry x="210" y="-510" width="70" height="30" as="geometry" />
        </mxCell>
      </root>
    </mxGraphModel>
  </diagram>
</mxfile>
